<?xml version="1.0" standalone="no"?>
<!DOCTYPE svg PUBLIC "-//W3C//DTD SVG 20010904//EN"
 "http://www.w3.org/TR/2001/REC-SVG-20010904/DTD/svg10.dtd">
<svg version="1.0" xmlns="http://www.w3.org/2000/svg"
 width="40.000000pt" height="40`.000000pt" viewBox="0 0 920.000000 603.000000"
 preserveAspectRatio="xMidYMid meet">

<g transform="translate(0.000000,603.000000) scale(0.100000,-0.100000)"
fill="#000000" stroke="none">
<path d="M4290 6023 c-240 -6 -634 -37 -870 -68 -845 -112 -1395 -329 -1535
-604 -57 -114 -53 -251 12 -358 44 -75 71 -102 169 -177 53 -41 396 -386 1030
-1040 522 -539 964 -996 981 -1017 l33 -37 2 -1298 3 -1299 23 -37 c13 -20 40
-47 60 -60 37 -23 39 -23 387 -23 343 0 351 0 385 22 20 12 46 40 58 61 l22
40 0 1289 0 1289 918 935 c504 514 958 977 1007 1028 50 51 124 119 165 151
93 72 119 100 163 173 44 73 61 162 48 246 -27 165 -160 300 -414 421 -382
181 -959 297 -1732 350 -150 10 -717 18 -915 13z m820 -347 c30 -3 123 -11
205 -17 773 -55 1459 -229 1658 -420 26 -25 47 -51 47 -58 0 -26 -95 -101
-187 -149 -340 -173 -1002 -307 -1663 -337 -74 -4 -148 -8 -165 -11 -39 -5
-781 -5 -820 0 -16 3 -88 7 -160 11 -824 38 -1642 242 -1820 453 -33 39 -26
55 47 113 264 209 1074 385 1908 415 96 4 177 8 179 10 6 6 706 -4 771 -10z
m-1790 -1254 c192 -28 501 -59 735 -72 207 -12 830 -16 1002 -5 486 28 805 65
1124 129 l156 31 -126 -131 c-69 -71 -423 -433 -786 -802 -363 -370 -670 -689
-682 -710 l-23 -37 0 -1242 0 -1243 -135 0 -135 0 -2 1253 -3 1253 -26 40
c-20 30 -1016 1065 -1495 1554 l-64 66 157 -32 c87 -17 223 -41 303 -52z"/>
<path d="M4289 5546 c-2 -2 -97 -6 -211 -10 -114 -4 -218 -9 -230 -11 -13 -2
-66 -6 -118 -10 -113 -7 -130 -9 -331 -35 -355 -46 -560 -107 -635 -191 -55
-61 -50 -150 10 -208 158 -152 849 -246 1806 -246 254 0 684 11 727 19 10 2
63 7 118 10 372 25 756 96 892 164 70 36 98 64 117 120 13 37 13 47 0 84 -8
23 -25 53 -37 66 -70 76 -306 143 -657 187 -182 22 -190 23 -365 35 -88 5
-194 13 -235 16 -86 6 -845 16 -851 10z"/>
</g>
</svg>
